<svg xmlns="http://www.w3.org/2000/svg" viewBox="118 606 3469 916" fill="#ffffff"><path d="M1076.0 1496.1C1068.0 1493.6 1061.7 1489.6 1056.2 1483.5C1051.9 1478.8 1046.3 1469.4 1047.2 1468.5C1047.6 1468.1 1067.0 1461.0 1067.6 1461.0C1067.8 1461.0 1068.6 1462.3 1069.4 1463.8C1073.4 1471.6 1083.6 1476.9 1091.7 1475.4C1113.5 1471.5 1118.2 1443.9 1098.8 1433.9C1096.6 1432.8 1091.3 1431.6 1085.9 1431.0C1069.4 1429.3 1056.0 1420.3 1048.9 1406.2C1045.6 1399.6 1045.5 1399.3 1045.5 1386.5C1045.5 1373.7 1045.6 1373.4 1048.8 1367.1C1063.0 1339.9 1096.4 1333.6 1119.1 1353.9C1123.9 1358.2 1132.0 1370.3 1130.8 1371.5C1130.6 1371.7 1126.0 1373.5 1120.5 1375.5L1110.5 1379.1L1109.0 1376.8C1103.3 1368.3 1097.4 1364.7 1089.0 1364.7C1069.0 1364.7 1059.6 1388.7 1074.1 1402.8C1077.6 1406.3 1085.0 1409.0 1090.9 1409.0C1101.0 1409.1 1112.3 1414.1 1120.3 1422.1C1144.0 1445.8 1134.0 1486.1 1101.9 1496.1C1094.3 1498.5 1083.4 1498.5 1076.0 1496.1ZM1230.5 1496.8C1230.2 1496.1 1230.1 1461.1 1230.2 1419.0L1230.5 1342.5L1241.2 1342.2L1252.0 1341.9L1252.0 1377.0C1252.0 1404.4 1252.3 1412.0 1253.2 1411.9C1253.9 1411.9 1268.8 1396.1 1286.4 1376.9L1318.3 1342.0L1333.2 1342.0C1344.9 1342.0 1348.0 1342.3 1347.4 1343.2C1346.9 1343.9 1334.8 1357.4 1320.3 1373.2C1305.8 1389.0 1294.0 1402.5 1294.0 1403.2C1294.1 1403.9 1307.1 1425.2 1322.9 1450.5C1338.8 1475.8 1351.5 1496.9 1351.1 1497.3C1350.7 1497.7 1344.8 1497.9 1338.0 1497.8L1325.7 1497.5L1302.0 1459.5C1288.9 1438.7 1277.8 1421.4 1277.2 1421.2C1276.7 1421.1 1270.8 1426.9 1264.1 1434.2L1252.0 1447.5L1252.0 1472.8L1252.0 1498.0L1241.5 1498.0C1234.0 1498.0 1230.8 1497.6 1230.5 1496.8ZM1453.0 1420.0L1453.0 1342.0L1464.0 1342.0L1475.0 1342.0L1474.8 1419.8L1474.5 1497.5L1463.8 1497.8L1453.0 1498.1L1453.0 1420.0ZM1585.0 1419.9L1585.0 1341.7L1589.8 1346.0C1592.4 1348.4 1599.2 1354.9 1605.0 1360.4C1638.0 1392.2 1694.3 1445.5 1695.1 1445.8C1695.6 1446.0 1696.0 1425.0 1696.0 1394.1L1696.0 1342.0L1707.0 1342.0L1718.0 1342.0L1718.0 1420.1C1718.0 1468.0 1717.6 1498.0 1717.1 1497.8C1716.6 1497.7 1691.7 1474.2 1661.8 1445.6L1607.5 1393.8L1607.0 1445.6L1606.5 1497.5L1595.8 1497.8L1585.0 1498.1L1585.0 1419.9ZM1993.5 1496.5C1969.0 1491.1 1949.6 1475.9 1938.9 1453.5C1933.0 1441.3 1931.5 1434.5 1931.5 1420.0C1931.5 1405.5 1933.0 1398.7 1938.9 1386.5C1946.4 1370.8 1957.8 1359.0 1972.9 1351.1C1984.0 1345.4 1992.8 1343.0 2005.0 1342.3C2022.5 1341.3 2038.2 1345.6 2052.9 1355.4C2059.8 1360.0 2071.4 1371.3 2070.8 1372.9C2070.5 1373.9 2055.1 1386.0 2054.2 1386.0C2054.0 1386.0 2050.7 1383.1 2047.0 1379.6C2017.2 1351.5 1968.3 1364.5 1956.0 1403.9C1953.1 1413.0 1953.3 1428.2 1956.3 1437.1C1961.2 1451.6 1971.1 1463.0 1984.2 1469.5C1998.1 1476.3 2012.5 1477.4 2026.5 1472.8C2034.9 1470.1 2040.5 1466.6 2047.7 1459.7C2052.1 1455.5 2054.3 1454.1 2055.3 1454.7C2059.4 1457.1 2071.0 1466.6 2071.0 1467.6C2071.0 1469.5 2056.7 1482.4 2050.2 1486.4C2033.3 1496.7 2011.7 1500.5 1993.5 1496.5ZM2141.0 1497.3C2141.1 1495.6 2226.6 1339.9 2227.4 1339.9C2228.1 1339.9 2312.0 1492.4 2313.7 1496.8C2314.1 1497.8 2311.6 1498.0 2301.4 1497.8L2288.6 1497.5L2282.0 1485.4C2278.4 1478.7 2274.8 1472.5 2274.1 1471.6C2272.9 1470.2 2268.0 1470.0 2227.0 1470.0L2181.2 1470.0L2173.7 1483.8L2166.3 1497.5L2153.6 1497.8C2146.7 1497.9 2141.0 1497.7 2141.0 1497.3ZM2404.0 1420.0L2404.0 1342.0L2435.3 1342.0C2469.7 1342.0 2473.1 1342.4 2485.0 1348.2C2493.2 1352.1 2504.3 1363.1 2508.7 1371.5C2522.0 1396.9 2513.6 1429.1 2489.7 1444.4L2484.1 1448.0L2489.7 1456.8C2492.8 1461.6 2499.8 1472.2 2505.2 1480.3C2510.7 1488.4 2515.4 1495.8 2515.7 1496.6C2516.1 1497.8 2514.1 1498.0 2503.1 1498.0L2489.9 1498.0L2475.5 1476.0L2461.0 1454.0L2443.5 1454.0L2426.0 1454.0L2426.0 1476.0L2426.0 1498.0L2415.0 1498.0L2404.0 1498.0L2404.0 1420.0ZM2619.5 1496.8C2619.2 1496.1 2619.1 1461.1 2619.2 1419.0L2619.5 1342.5L2675.0 1342.5L2730.5 1342.5L2730.5 1353.0L2730.5 1363.5L2686.0 1364.0L2641.5 1364.5L2641.2 1394.4C2641.0 1417.7 2641.3 1424.5 2642.2 1425.2C2642.9 1425.6 2658.0 1426.0 2675.8 1426.0L2708.0 1426.0L2708.0 1437.0L2708.0 1448.0L2674.8 1448.2L2641.5 1448.5L2641.5 1462.0L2641.5 1475.5L2686.0 1476.0L2730.5 1476.5L2730.8 1485.0C2731.0 1489.7 2730.8 1494.5 2730.5 1495.8L2730.0 1498.0L2674.9 1498.0C2631.9 1498.0 2619.8 1497.7 2619.5 1496.8ZM2260.4 1447.2C2261.0 1446.2 2228.6 1386.8 2227.4 1386.9C2226.5 1386.9 2194.0 1445.7 2194.0 1447.2C2194.0 1448.3 2259.7 1448.2 2260.4 1447.2ZM2473.5 1428.0C2480.2 1424.7 2486.6 1418.1 2489.8 1411.2C2492.0 1406.5 2492.4 1404.1 2492.4 1397.4C2492.4 1387.1 2489.3 1380.3 2481.5 1373.1C2473.0 1365.4 2469.3 1364.5 2446.0 1364.5L2426.5 1364.5L2426.2 1397.8L2426.0 1431.1L2447.2 1430.8C2467.5 1430.5 2468.7 1430.4 2473.5 1428.0ZM360.0 1077.2L359.9 979.5L251.1 805.5C191.2 709.8 142.4 631.2 142.7 630.8C143.3 629.8 268.1 629.8 269.7 630.8C270.3 631.2 302.9 682.8 342.0 745.5C381.2 808.2 413.6 859.9 414.0 860.3C414.4 860.8 419.5 853.6 425.2 844.3C431.0 835.1 452.7 800.5 473.5 767.5C494.3 734.5 518.2 696.5 526.6 683.0C535.0 669.5 545.9 652.2 550.8 644.5L559.6 630.5L623.4 630.2C684.3 630.0 687.2 630.1 686.8 631.8C686.5 632.8 666.8 664.6 643.0 702.5C619.2 740.5 595.3 778.5 590.0 787.0C584.7 795.5 561.9 831.8 539.5 867.5C517.0 903.2 495.3 937.9 491.2 944.5C487.1 951.1 480.5 961.7 476.4 968.1L469.0 979.7L469.0 1077.3L469.0 1175.0L414.5 1175.0L360.0 1175.0L360.0 1077.2ZM1088.0 1173.4C1075.1 1171.7 1056.1 1167.0 1042.7 1162.3C958.8 1133.1 898.8 1059.8 886.6 971.2C885.2 961.4 885.0 939.2 885.0 795.5L885.0 631.0L939.0 631.0L993.0 631.0L993.0 785.2C993.0 882.3 993.4 943.6 994.0 950.5C996.9 982.0 1009.8 1008.9 1032.1 1030.5C1056.6 1054.1 1086.0 1066.0 1120.0 1066.0C1155.3 1066.0 1186.4 1052.9 1210.8 1027.6C1228.6 1009.1 1239.7 987.8 1245.2 961.1C1246.0 957.0 1246.4 911.2 1246.7 793.2L1247.1 631.0L1301.6 631.0L1356.1 631.0L1355.7 795.2C1355.4 959.4 1355.4 959.5 1353.2 973.3C1344.8 1025.2 1324.1 1067.1 1289.0 1103.4C1253.8 1139.7 1210.2 1162.9 1160.0 1172.2C1144.8 1174.9 1104.1 1175.7 1088.0 1173.4ZM1852.0 1174.3C1805.7 1169.4 1762.7 1154.4 1727.3 1130.8C1707.9 1117.8 1700.6 1111.7 1683.9 1095.1C1668.1 1079.3 1662.3 1072.4 1650.8 1055.5C1627.4 1021.4 1612.1 981.2 1605.8 937.5C1604.1 925.5 1604.1 880.5 1605.8 868.5C1612.7 820.3 1630.4 777.0 1658.2 739.9C1703.8 679.0 1772.1 640.1 1847.5 632.0C1860.4 630.6 1891.8 630.6 1904.0 632.0C1939.6 636.0 1963.4 642.9 1995.5 658.5C2022.6 671.7 2047.2 689.1 2067.5 709.5C2083.7 725.7 2104.4 752.1 2102.4 753.9C2101.9 754.4 2096.1 759.0 2089.5 764.1C2082.9 769.2 2065.6 782.6 2051.0 793.8C2036.4 805.1 2022.8 815.6 2020.8 817.2L2017.1 820.1L2011.1 811.3C1987.1 776.2 1951.9 752.6 1910.0 743.3C1894.3 739.9 1868.4 739.0 1853.0 741.4C1825.3 745.8 1803.5 754.6 1782.1 769.8C1732.4 805.1 1706.4 864.6 1714.5 924.2C1719.5 960.7 1735.0 991.9 1761.0 1018.1C1801.0 1058.4 1858.2 1074.6 1914.5 1061.6C1935.9 1056.6 1963.1 1043.1 1980.2 1028.8L1985.0 1024.8L1985.0 1009.4L1985.0 994.0L1921.5 994.0L1858.0 994.0L1858.0 939.5L1858.0 885.0L1976.0 885.0L2094.0 885.0L2094.0 975.6L2094.0 1066.3L2086.3 1075.9C2042.8 1130.1 1974.8 1166.5 1903.0 1174.0C1894.1 1174.9 1859.7 1175.1 1852.0 1174.3ZM2380.7 1174.3C2379.7 1173.4 2379.9 632.8 2380.8 631.2C2381.5 630.2 2422.1 630.0 2580.6 630.2L2779.5 630.5L2779.5 685.0L2779.5 739.5L2634.2 739.8L2489.0 740.0L2489.2 821.3L2489.5 902.5L2598.2 902.8L2707.0 903.0L2707.0 957.5L2707.0 1012.0L2598.2 1012.2L2489.5 1012.5L2489.2 1039.2L2489.0 1066.0L2634.5 1066.0L2780.0 1066.0L2779.8 1120.2L2779.5 1174.5L2580.4 1174.8C2470.9 1174.9 2381.0 1174.7 2380.7 1174.3ZM3092.2 902.8L3092.5 630.5L3106.3 630.2L3120.1 629.9L3125.4 634.7C3128.3 637.3 3139.9 648.3 3151.1 659.0C3176.7 683.5 3266.6 769.3 3311.5 812.0C3330.2 829.8 3354.5 853.0 3365.5 863.5C3376.5 874.0 3400.7 897.1 3419.2 914.8C3437.7 932.5 3453.4 947.0 3453.9 947.0C3454.7 947.0 3455.1 899.0 3455.2 788.8L3455.5 630.5L3509.2 630.2L3563.0 630.0L3563.0 902.5L3563.0 1175.0L3548.1 1175.0L3533.3 1175.0L3506.4 1149.2C3491.6 1135.1 3454.7 1099.9 3424.5 1071.0C3394.2 1042.1 3358.7 1008.1 3345.5 995.5C3289.6 941.9 3210.1 866.1 3205.8 862.1L3201.0 857.8L3200.8 1016.1L3200.5 1174.5L3146.2 1174.8L3092.0 1175.0L3092.2 902.8Z"/></svg>